Coordinates
version=1
nRows=19
nColumns=34
inDegrees=no

Units are S.I. units (second, meters, Newtons, ...)
If the header above contains a line with 'inDegrees', this indicates whether rotational values are in degrees (yes) or radians (no).

endheader
time	pelvis_tilt	pelvis_list	pelvis_rotation	pelvis_tx	pelvis_ty	pelvis_tz	hip_flexion_r	hip_adduction_r	hip_rotation_r	knee_angle_r	ankle_angle_r	subtalar_angle_r	mtp_angle_r	hip_flexion_l	hip_adduction_l	hip_rotation_l	knee_angle_l	ankle_angle_l	subtalar_angle_l	mtp_angle_l	lumbar_extension	lumbar_bending	lumbar_rotation	arm_flex_r	arm_add_r	arm_rot_r	elbow_flex_r	pro_sup_r	arm_flex_l	arm_add_l	arm_rot_l	elbow_flex_l	pro_sup_l
2.01	-0.640592	-0.0503769	-0.00963559	-0.310974	0.610322	-0.525233	1.86615	-0.134796	-0.077533	1.69198	0.507332	-0.309536	-0.119828	1.94224	-0.194617	0.166452	1.6637	0.484644	-0.0192891	-0.119823	-0.501022	0.0119327	-0.0663914	0.335588	-0.268641	0.572834	0.400843	1.47141	0.0625708	-0.279996	-0.0840787	0.403835	1.20444
2.02	-0.629121	-0.0504332	-0.00382562	-0.309783	0.619219	-0.525782	1.83664	-0.136724	-0.0768575	1.6702	0.502268	-0.312152	-0.119823	1.91029	-0.188448	0.161472	1.64035	0.479901	-0.0245865	-0.119819	-0.509909	0.0136901	-0.0646835	0.364843	-0.266677	0.55563	0.402651	1.42804	0.107073	-0.281163	-0.0696452	0.403797	1.18802
2.03	-0.61424	-0.0502515	0.002604	-0.30829	0.628485	-0.526412	1.80343	-0.138905	-0.0756849	1.64866	0.497609	-0.314821	-0.119819	1.8745	-0.181191	0.157038	1.6171	0.475414	-0.0303564	-0.119814	-0.520804	0.0154462	-0.0632921	0.396549	-0.265287	0.534128	0.406126	1.38529	0.154323	-0.282756	-0.0538465	0.405964	1.17174
2.04	-0.596296	-0.0497468	0.0095219	-0.30652	0.637988	-0.527113	1.76691	-0.141299	-0.0741235	1.62754	0.493413	-0.317518	-0.119814	1.83527	-0.172923	0.15331	1.59411	0.471196	-0.036797	-0.119809	-0.533097	0.0170565	-0.062274	0.429822	-0.264011	0.506869	0.412256	1.34556	0.203525	-0.284442	-0.0377185	0.410967	1.15615
2.05	-0.575807	-0.0488684	0.0167251	-0.304472	0.647585	-0.527852	1.72765	-0.143829	-0.0723266	1.60698	0.489694	-0.320221	-0.119809	1.79319	-0.163834	0.150417	1.57157	0.467245	-0.0440426	-0.119805	-0.545948	0.0183964	-0.0616041	0.463582	-0.262566	0.472967	0.422533	1.31067	0.253728	-0.28585	-0.0223744	0.4197	1.14179
2.06	-0.553388	-0.0476146	0.0239517	-0.30214	0.657156	-0.528606	1.68631	-0.146377	-0.0704708	1.58715	0.486416	-0.322923	-0.119805	1.74901	-0.154242	0.148417	1.54968	0.463561	-0.0520842	-0.1198	-0.558397	0.0193567	-0.061199	0.49671	-0.260845	0.432411	0.438743	1.28163	0.303872	-0.28663	-0.00891853	0.433328	1.12915
2.07	-0.529663	-0.0460172	0.0309045	-0.299511	0.66659	-0.52935	1.64361	-0.148794	-0.0687229	1.56816	0.483487	-0.325641	-0.1198	1.70352	-0.144606	0.147232	1.52866	0.460158	-0.0606964	-0.119795	-0.569507	0.0198428	-0.0609732	0.528232	-0.25887	0.38616	0.462656	1.25866	0.352834	-0.286536	0.00170371	0.453262	1.1185
2.08	-0.505191	-0.0441108	0.0372895	-0.296579	0.675786	-0.530066	1.60021	-0.150926	-0.0671982	1.55015	0.480763	-0.328406	-0.119795	1.65748	-0.135498	0.146607	1.50873	0.457082	-0.0694048	-0.119791	-0.578487	0.0197674	-0.0608922	0.557468	-0.256728	0.33601	0.495721	1.24133	0.399505	-0.285515	0.00897319	0.481076	1.10984
2.09	-0.480428	-0.0419055	0.0428556	-0.293346	0.684653	-0.530742	1.5567	-0.152655	-0.0659317	1.5332	0.47807	-0.33125	-0.119791	1.61157	-0.127527	0.146102	1.49008	0.454397	-0.0775441	-0.119786	-0.584737	0.0190424	-0.0610003	0.584105	-0.254535	0.284335	0.538846	1.22876	0.442879	-0.28377	0.0130722	0.518363	1.10284
2.1	-0.455747	-0.0393833	0.0474245	-0.289812	0.693108	-0.531369	1.51358	-0.153942	-0.0648894	1.51737	0.475243	-0.334142	-0.119786	1.56633	-0.121216	0.145174	1.47284	0.452156	-0.0844157	-0.119781	-0.587852	0.0175828	-0.0614176	0.608204	-0.25242	0.233755	0.592291	1.21974	0.482161	-0.281748	0.0149378	0.566522	1.09698
2.11	-0.431447	-0.036517	0.050907	-0.285957	0.701102	-0.531941	1.47124	-0.154852	-0.064014	1.50264	0.472181	-0.33694	-0.119781	1.52217	-0.116894	0.143295	1.45704	0.450374	-0.0894729	-0.119777	-0.587603	0.0153331	-0.0623087	0.630151	-0.250521	0.186802	0.655682	1.21301	0.516877	-0.280041	0.0159803	0.626526	1.09179
2.12	-0.407753	-0.0333027	0.0532971	-0.281763	0.708642	-0.53246	1.42991	-0.155529	-0.0632696	1.4889	0.468879	-0.339382	-0.119777	1.47927	-0.114647	0.140072	1.44259	0.449033	-0.0924322	-0.119772	-0.583936	0.0122957	-0.0638327	0.650587	-0.24898	0.145607	0.728108	1.20748	0.546956	-0.279249	0.017621	0.698727	1.08701
2.13	-0.384818	-0.0297803	0.0546388	-0.277217	0.715792	-0.532931	1.38962	-0.156112	-0.0626571	1.47592	0.465417	-0.34116	-0.119772	1.43762	-0.114359	0.135308	1.42926	0.448105	-0.0933079	-0.119767	-0.576942	0.00854062	-0.066075	0.670321	-0.247924	0.111644	0.808276	1.20242	0.572756	-0.279855	0.0209121	0.782775	1.08271
2.14	-0.362769	-0.0260356	0.054977	-0.272308	0.722659	-0.53337	1.35027	-0.156657	-0.0622045	1.4633	0.461907	-0.342024	-0.119768	1.39704	-0.11577	0.129035	1.41667	0.447563	-0.0924233	-0.119763	-0.566806	0.00418437	-0.0689805	0.690228	-0.247461	0.0855954	0.89468	1.19759	0.59503	-0.282152	0.0263778	0.877645	1.07936
2.15	-0.341765	-0.0221821	0.0543118	-0.267038	0.729366	-0.533796	1.31169	-0.157086	-0.0619498	1.45055	0.458434	-0.34185	-0.119763	1.35726	-0.118556	0.121476	1.4043	0.447372	-0.0903695	-0.119758	-0.553701	-0.000640024	-0.0723143	0.711164	-0.247686	0.0673669	0.985776	1.1932	0.614829	-0.286224	0.034055	0.981784	1.07766
2.16	-0.322056	-0.0183392	0.0525738	-0.26142	0.736047	-0.534228	1.27375	-0.157224	-0.0619243	1.43703	0.455027	-0.34064	-0.119758	1.31802	-0.122425	0.112943	1.39152	0.447476	-0.0878579	-0.119753	-0.537714	-0.00580696	-0.0756748	0.733888	-0.248711	0.0562677	1.08012	1.1897	0.633361	-0.291982	0.0436383	1.09333	1.07822
2.17	-0.303985	-0.0146105	0.0496355	-0.255473	0.742848	-0.534677	1.23642	-0.156853	-0.0621382	1.42207	0.451646	-0.338495	-0.119754	1.27916	-0.127197	0.103693	1.37762	0.447806	-0.0855201	-0.119749	-0.518808	-0.0112066	-0.0785497	0.759029	-0.250693	0.0512672	1.17649	1.18759	0.651839	-0.299221	0.054646	1.21031	1.08145
2.18	-0.287946	-0.0110628	0.0453483	-0.249213	0.749917	-0.535141	1.19972	-0.155795	-0.0625645	1.40493	0.448166	-0.335575	-0.119749	1.24054	-0.132814	0.0938564	1.36186	0.448256	-0.0837847	-0.119744	-0.496861	-0.0167435	-0.0803939	0.787059	-0.253853	0.0512502	1.27388	1.1873	0.671346	-0.3077	0.0665735	1.33083	1.0876
2.19	-0.274287	-0.00770926	0.0395866	-0.242657	0.757408	-0.535608	1.16365	-0.15397	-0.0631203	1.3849	0.444358	-0.332055	-0.119744	1.20206	-0.139282	0.0834184	1.34344	0.448647	-0.0828732	-0.119739	-0.47175	-0.0223372	-0.0807069	0.818297	-0.258482	0.055202	1.37156	1.18911	0.692745	-0.317199	0.0790129	1.45312	1.09693
